<?xml version="1.0" encoding="utf-8"?>
<!-- Generator: Adobe Illustrator 22.1.0, SVG Export Plug-In . SVG Version: 6.00 Build 0)  -->
<svg version="1.1" id="Air_Canada" xmlns="http://www.w3.org/2000/svg" xmlns:xlink="http://www.w3.org/1999/xlink" x="0px" y="0px"
	 viewBox="0 0 210 120" style="enable-background:new 0 0 210 120;" xml:space="preserve">
<style type="text/css">
	.st0{fill:#F9F9FA;}
	.st1{fill:#FF1300;}
</style>
<title>AA</title>
<rect id="Background" class="st0" width="209.9" height="120.1"/>
<path class="st1" d="M109.6,79.6v-3.1c1.7-0.4,3.4-0.7,5-1.2c8.7-3,14.5-8.8,16.5-17.9c1.7-7.5-0.1-14.3-5-20.2
	c-3.4-4.2-8.2-7.2-13.6-8.3c-7.5-1.8-15.5,0-21.5,4.9c-4.3,3.3-7.4,8.1-8.5,13.4c-1.7,6.9,0,14.3,4.5,19.8c3.8,4.8,9.2,8.1,15.2,9.1
	l1.6,0.3c0.3,0.1,0.7-0.1,0.8-0.4c0,0,0,0,0,0c0.6-1.3,0.9-2.6,1-4c0.1-2.4,0.1-4.8,0.1-7.2c0-1.2-0.7-1.7-1.8-1.2
	c-0.7,0.3-1.4,0.7-2.1,1.1c-1.6,0.9-3.1,1.7-4.7,2.6l-0.4,0.2c-0.2-0.3-0.4-0.6-0.6-0.9c-0.6-0.6-1.5-0.7-2.3-0.4
	c-1.3,0.3-2.5,0.6-3.9,0.9c0.2-0.3,0.3-0.6,0.4-0.9c0.4-0.9,0.8-1.8,1.2-2.7c0.2-0.4,0.3-0.8,0.3-1.3c0.1-0.8-0.4-1.6-1.1-1.8
	c0.7-0.5,1.3-0.8,1.9-1.3c0.4-0.3,0.7-0.6,1.1-1c0.3-0.4,0.3-1-0.1-1.4c-0.3-0.3-0.7-0.6-1.1-0.8c-1.5-0.7-3.1-1.4-4.7-2.1l-0.4-0.2
	c0.8-0.5,1.3-1.4,1.2-2.3c-0.1-0.5-0.3-1-0.6-1.4c-0.8-1.2-1.7-2.4-2.6-3.6c-0.1-0.1-0.1-0.2-0.3-0.4h4.9c1.2,0.2,2.4-0.7,2.5-2
	c0-0.1,0-0.1,0-0.2c0-0.1,0-0.2,0-0.4l0.4,0.3c1.5,1.1,3.1,2.1,4.6,3.2c0.4,0.3,0.8,0.5,1.3,0.6c1,0.2,1.9-0.5,2.1-1.4
	c0-0.2,0-0.3,0-0.5c0-0.8-0.2-1.7-0.2-2.5c-0.2-1.7-0.4-3.4-0.6-5.1c0.4,0.1,0.7,0.3,1.1,0.3c1.2,0.3,2.5-0.4,2.9-1.5
	c0.9-1.8,1.7-3.7,2.5-5.5c0-0.1,0.1-0.2,0.2-0.4c0.1,0.2,0.2,0.4,0.3,0.5c0.8,1.6,1.6,3.3,2.3,4.9c0.4,1.5,1.9,2.3,3.4,1.9
	c0.2-0.1,0.5-0.2,0.7-0.3c0,0.5-0.1,1.1-0.1,1.6c-0.2,1.8-0.4,3.6-0.7,5.3c0,0.4,0,0.8,0.1,1.2c0.2,1,1.2,1.6,2.1,1.3
	c0.2-0.1,0.4-0.1,0.6-0.3c0.9-0.5,1.8-1.2,2.7-1.8s1.9-1.3,2.9-2c0,0.2,0.1,0.4,0.1,0.5c0.1,1.2,1,2,2.2,2c1.6,0,3.2,0,4.8,0h0.3
	l-0.6,0.8c-0.7,1-1.4,1.9-2.1,2.9c-1.1,1.6-1,2.7,0.5,4c-0.3,0.2-0.6,0.3-0.9,0.4l-4.1,1.8c-0.2,0.1-0.4,0.2-0.6,0.3
	c-1.1,0.7-1.2,1.6-0.2,2.5c0.6,0.5,1.3,1,2,1.4l0.4,0.3c-1,0.5-1.4,1.6-1,2.7c0,0.1,0.1,0.2,0.1,0.2c0.4,1.1,1,2.2,1.4,3.3
	c0.1,0.2,0.1,0.3,0.2,0.5l-3.8-0.8c-0.3-0.1-0.7-0.1-1-0.1c-0.9,0-1.7,0.6-1.8,1.5l-0.6-0.3c-1.9-1.1-3.8-2.1-5.7-3.2
	c-0.4-0.2-0.9-0.4-1.3-0.6c-0.5-0.2-1.1,0-1.3,0.5c-0.1,0.1-0.1,0.3-0.1,0.4c-0.1,0.3-0.1,0.5-0.1,0.8c0,2.4,0,4.7,0,7.1
	c0,2.7-0.4,5.4-1.2,8c-0.1,0.4-0.3,0.8-0.5,1.2c-1.4-1.7-3.3-1.9-5.1-2.3c-10.5-2.3-18-8.2-21.5-18.5c-3.2-9-1.4-17.6,4.6-25
	c4.3-5.3,10.4-8.9,17.1-10c8.2-1.7,16.8,0.3,23.4,5.5c5.4,4,9.1,9.9,10.3,16.5c1.5,7.4-0.4,15.1-5.1,21c-4.3,5.7-10.7,9.5-17.7,10.7
	C111.3,79.4,110.5,79.5,109.6,79.6z"/>
<path d="M112,89.1c0.6,0,1.2,0,1.7,0c0.2,0,0.4,0.1,0.5,0.3l4,4.7l0.4,0.5v-5.4h1.4v7.6c-0.6,0-1.1,0-1.7,0c-0.1,0-0.3-0.2-0.4-0.3
	l-4.1-4.7l-0.6-0.7v5.6H112V89.1z"/>
<path d="M133.9,96.7v-7.6c0.2,0,0.4,0,0.6,0c1.3,0,2.6,0,3.9,0.1c2.5,0.2,3.4,2,3.1,4.2s-1.6,3.2-3.9,3.3
	C136.4,96.7,135.2,96.7,133.9,96.7z M135.6,92.8c0,0.8,0,1.6,0,2.3c0,0.3,0.1,0.4,0.4,0.4s0.9,0,1.3,0c0.8,0,1.5-0.3,1.9-1
	c0.6-1.1,0.6-2.4-0.1-3.4c-0.3-0.4-0.7-0.7-1.2-0.8c-0.7-0.1-1.4-0.2-2.1-0.2c-0.1,0-0.3,0.2-0.3,0.4
	C135.6,91.3,135.6,92.1,135.6,92.8z"/>
<path d="M79.7,93.5v3.1h-1.6v-7.6c0.8,0,1.7,0,2.5,0s1.5,0,2.2,0.1c0.9,0,1.7,0.7,1.9,1.6c0.2,0.9-0.3,1.9-1.2,2.2l-0.3,0.2l2.8,3.5
	c-0.7,0-1.3,0-1.9,0c-0.1,0-0.3-0.2-0.4-0.3c-0.6-0.8-1.3-1.6-1.9-2.4c-0.2-0.3-0.5-0.4-0.8-0.4C80.5,93.6,80.1,93.5,79.7,93.5z
	 M79.7,90c0,0.8,0,1.5,0,2.2c0,0.1,0.1,0.3,0.3,0.3c0.7,0,1.3,0,2-0.1c0.6,0,1-0.5,0.9-1.1c0,0,0-0.1,0-0.1c0-0.5-0.4-0.9-0.9-1
	C81.3,90.1,80.5,90.1,79.7,90L79.7,90z"/>
<path d="M152.1,96.7c-0.7,0-1.2,0-1.8,0c-0.2,0-0.3-0.1-0.4-0.3c-0.2-0.5-0.4-1-0.6-1.4c-0.1-0.2-0.3-0.3-0.4-0.3c-1,0-1.9,0-2.9,0
	c-0.2,0-0.4,0.1-0.5,0.3c-0.2,0.4-0.4,0.8-0.5,1.2c-0.1,0.4-0.4,0.6-0.8,0.6c0,0-0.1,0-0.1,0c-0.2,0-0.4,0-0.6,0
	c0.1-0.2,0.1-0.3,0.2-0.5c1-2.2,2-4.5,2.9-6.7c0.1-0.3,0.3-0.4,0.6-0.4c0.5,0,1.1-0.1,1.5,0.1s0.5,0.9,0.7,1.3
	c0.8,1.9,1.6,3.7,2.4,5.6L152.1,96.7z M147.5,90.7l-1.3,3h2.6L147.5,90.7z"/>
<path d="M109.4,96.7c-0.7,0-1.2,0-1.8,0c-0.2,0-0.3-0.1-0.4-0.3c-0.2-0.4-0.4-0.9-0.6-1.3c-0.1-0.3-0.3-0.5-0.6-0.4
	c-0.9,0-1.8,0-2.7,0c-0.2,0-0.5,0.1-0.5,0.3c-0.2,0.4-0.4,0.8-0.5,1.2c-0.1,0.3-0.4,0.6-0.7,0.5c0,0,0,0,0,0c-0.2,0-0.5,0-0.7,0
	c0.1-0.2,0.1-0.3,0.2-0.5c1-2.2,2-4.5,2.9-6.7c0.1-0.3,0.4-0.5,0.7-0.4c0.5,0,1.1-0.1,1.5,0.1s0.5,0.9,0.7,1.3l2.4,5.6
	C109.2,96.3,109.3,96.4,109.4,96.7z M103.4,93.7h2.6l-1.3-3L103.4,93.7z"/>
<path d="M70,96.7c-0.7,0-1.2,0-1.8,0c-0.2,0-0.3-0.2-0.4-0.3c-0.2-0.4-0.4-0.9-0.6-1.3c-0.1-0.2-0.3-0.4-0.5-0.4c-0.9,0-1.9,0-2.8,0
	c-0.2,0-0.4,0.1-0.5,0.3c-0.2,0.4-0.4,0.8-0.6,1.2c-0.1,0.3-0.3,0.5-0.7,0.5c0,0,0,0,0,0c-0.2,0-0.5,0-0.7,0c0-0.2,0.1-0.3,0.2-0.4
	c1-2.2,2-4.5,2.9-6.7c0.1-0.3,0.4-0.5,0.7-0.4c0.5,0,1.1-0.2,1.4,0.1s0.4,0.8,0.7,1.3C68.2,92.5,69.1,94.5,70,96.7z M66.6,93.7
	l-1.3-3l-1.3,3H66.6z"/>
<path d="M122.8,96.6l3.3-7.5c0.6,0,1.1,0,1.7,0c0.2,0,0.3,0.1,0.4,0.3c1,2.4,2.1,4.7,3.1,7.1c0,0.1,0,0.1,0,0.2c-0.6,0-1.2,0-1.8,0
	c-0.1,0-0.3-0.2-0.3-0.3c-0.2-0.5-0.4-0.9-0.6-1.4c-0.1-0.2-0.3-0.3-0.5-0.3c-0.9,0-1.9,0-2.8,0c-0.2,0-0.5,0.1-0.5,0.4
	c-0.1,0.3-0.2,0.6-0.4,0.8C123.9,96.8,123.9,96.8,122.8,96.6z M125.3,93.6h2.7l-1.3-3L125.3,93.6z"/>
<path d="M98.6,90.3c-0.8-0.1-1.6-0.3-2.4-0.4c-0.8-0.1-1.6,0-2.3,0.4c-1,0.7-1.5,2-1.2,3.2c0.2,1.1,1,1.9,2.1,2.1
	c1.3,0.2,2.6,0.1,3.8-0.4c0,0.3,0,0.7,0,1c0,0.1-0.2,0.2-0.3,0.3c-1.7,0.5-3.4,0.5-5.1,0c-1.6-0.5-2.7-2.2-2.5-3.9
	c0-1.7,1.1-3.1,2.7-3.5c1.6-0.4,3.3-0.4,4.9,0c0.1,0,0.2,0.2,0.3,0.3c0,0.2,0,0.4,0,0.7C98.6,90.2,98.6,90.3,98.6,90.3z"/>
<path d="M72.3,89.1h1.8v7.6c-0.5,0-1,0-1.5,0c-0.1,0-0.3-0.2-0.3-0.3C72.3,94,72.3,91.6,72.3,89.1z"/>
</svg>
