<svg xmlns="http://www.w3.org/2000/svg" viewBox="0 0 210 120"><defs><style>.cls-1{fill:#19305a;}.cls-2{fill:#ee4828;}.cls-3{fill:#fff;}.cls-4{fill:#f4f4f5;}.cls-5{fill:#22235c;}</style></defs><title>AY</title><g id="Brussels_Airines" data-name="Brussels Airines"><rect id="Background" class="cls-1" x="0.14" y="0.08" width="209.86" height="119.99"/><path class="cls-2" d="M24.53,67.8c0,1.13-1.24,2-2.79,2S19,68.93,19,67.8s1.25-2.07,2.79-2.07,2.79.93,2.79,2.07"/><path class="cls-2" d="M26.48,62.88c0,1-1.09,1.73-2.44,1.73s-2.45-.77-2.45-1.73,1.09-1.7,2.45-1.7,2.44.75,2.44,1.7"/><path class="cls-2" d="M28.08,58.79c0,.76-.93,1.38-2.08,1.39s-2.09-.63-2.09-1.39S24.85,57.4,26,57.4s2.08.63,2.08,1.39"/><path class="cls-2" d="M32.34,47.6c0,.3-.49.55-1.09.55s-1.09-.25-1.09-.55.49-.54,1.09-.54,1.09.23,1.09.54"/><path class="cls-2" d="M33.6,44.44c0,.22-.37.39-.82.39s-.82-.17-.82-.39.37-.4.82-.4.82.18.82.4"/><path class="cls-2" d="M33,45.94c0,.25-.41.45-.94.46s-.94-.21-.94-.46.42-.45.94-.45.94.2.94.45"/><path class="cls-2" d="M29.43,55.19c0,.62-.79,1.11-1.77,1.11s-1.77-.49-1.77-1.11.79-1.12,1.77-1.12,1.77.5,1.77,1.12"/><path class="cls-2" d="M30.6,52.19c0,.49-.67.89-1.51.89s-1.52-.4-1.52-.89.68-.9,1.52-.9,1.51.4,1.51.9"/><path class="cls-2" d="M31,67.45c0,1-1.13,1.85-2.53,1.85S26,68.48,26,67.45s1.14-1.85,2.54-1.85S31,66.43,31,67.45"/><path class="cls-2" d="M36.61,65.92c0,.9-1,1.62-2.28,1.62s-2.28-.72-2.28-1.62,1-1.64,2.28-1.64,2.28.73,2.28,1.64"/><path class="cls-2" d="M39.45,62.78c0,.7-.83,1.28-1.87,1.28s-1.86-.58-1.86-1.28.83-1.3,1.86-1.3,1.87.58,1.87,1.3"/><path class="cls-2" d="M36.73,57.18c0,.47-.61.85-1.35.85S34,57.65,34,57.18s.61-.86,1.37-.86,1.35.38,1.35.86"/><path class="cls-2" d="M31.61,49.68c0,.4-.58.72-1.29.72S29,50.08,29,49.68s.57-.71,1.28-.71,1.29.32,1.29.71"/><path class="cls-2" d="M39,59.52c0,.58-.7,1-1.58,1s-1.59-.47-1.59-1,.71-1,1.59-1S39,59,39,59.52"/><path class="cls-3" d="M47.83,67.36V52.13h2.43v5.63a6.79,6.79,0,0,1,2.21-.41A4.31,4.31,0,0,1,56,58.86a5.27,5.27,0,0,1,1.09,3.44,4.87,4.87,0,0,1-1.85,4.16,7.26,7.26,0,0,1-4.47,1.21,15.81,15.81,0,0,1-2.94-.31m2.43-7.74v6a5.5,5.5,0,0,0,.94.09q3.4,0,3.4-3.27a3.19,3.19,0,0,0-.84-2.4,2.73,2.73,0,0,0-2-.72,5.11,5.11,0,0,0-1.52.28"/><path class="cls-3" d="M59.59,67.54V58.23a11.36,11.36,0,0,1,4.29-.86,6.52,6.52,0,0,1,1.95.28V59.7a4.93,4.93,0,0,0-1.7-.28,5.93,5.93,0,0,0-2.11.39v7.74"/><path class="cls-3" d="M67.44,57.53h2.43v6a2.14,2.14,0,0,0,.53,1.69,2.33,2.33,0,0,0,1.55.4,9.21,9.21,0,0,0,1.63-.18V57.53H76V67.2a23.28,23.28,0,0,1-4.28.47,5,5,0,0,1-3.36-.93,2.81,2.81,0,0,1-.76-1.29,7.53,7.53,0,0,1-.18-1.84"/><path class="cls-3" d="M78.69,67.2V65a5.13,5.13,0,0,0,2.71.9q1.62,0,1.62-1c0-.46-.32-.83-1-1.13l-1-.46a5,5,0,0,1-1.91-1.39,2.77,2.77,0,0,1,.69-3.82,4.53,4.53,0,0,1,2.64-.71,6.3,6.3,0,0,1,2.58.55V60a4.65,4.65,0,0,0-2.41-.76c-1.09,0-1.62.33-1.62,1a.77.77,0,0,0,.33.65,10,10,0,0,0,1.38.75,6.94,6.94,0,0,1,2,1.34,2.65,2.65,0,0,1,.66,1.82,2.7,2.7,0,0,1-1.2,2.34,4.7,4.7,0,0,1-2.74.73,6.81,6.81,0,0,1-2.8-.63"/><path class="cls-3" d="M87.37,67.2V65a5.24,5.24,0,0,0,2.72.9c1.09,0,1.63-.34,1.63-1,0-.46-.32-.83-1-1.13l-1-.46a4.79,4.79,0,0,1-1.91-1.39,2.51,2.51,0,0,1-.5-1.56,2.6,2.6,0,0,1,1.18-2.26,4.51,4.51,0,0,1,2.64-.71,6.27,6.27,0,0,1,2.58.55V60a4.63,4.63,0,0,0-2.41-.76c-1.08,0-1.62.33-1.62,1a.79.79,0,0,0,.33.65,9.74,9.74,0,0,0,1.39.75,6.86,6.86,0,0,1,2,1.34,2.64,2.64,0,0,1,.65,1.82,2.69,2.69,0,0,1-1.19,2.34,4.69,4.69,0,0,1-2.73.73,7,7,0,0,1-2.82-.63"/><path class="cls-3" d="M105.19,63H98.32c.1,1.85,1.14,2.79,3.1,2.79a5.33,5.33,0,0,0,3.26-1.07v2a6.86,6.86,0,0,1-3.63,1,4.9,4.9,0,0,1-3.91-1.53A5.16,5.16,0,0,1,96,62.68a5.42,5.42,0,0,1,1.52-4.07,4.9,4.9,0,0,1,5.86-.61,3.78,3.78,0,0,1,1.38,1.63,8.7,8.7,0,0,1,.47,3.33m-6.71-1.7h4.36c-.11-1.4-.79-2.1-2-2.1a2.15,2.15,0,0,0-1.61.63,2.56,2.56,0,0,0-.72,1.47"/><rect class="cls-3" x="107.7" y="52.13" width="2.44" height="15.41"/><path class="cls-3" d="M112.83,67.2V65a5.16,5.16,0,0,0,2.72.9c1.07,0,1.62-.34,1.62-1,0-.46-.32-.83-1-1.13l-1-.46a4.86,4.86,0,0,1-1.91-1.39,2.5,2.5,0,0,1-.49-1.56A2.58,2.58,0,0,1,114,58.06a4.49,4.49,0,0,1,2.63-.71,6.27,6.27,0,0,1,2.58.55V60a4.65,4.65,0,0,0-2.4-.76c-1.1,0-1.63.33-1.63,1a.79.79,0,0,0,.33.65,9.74,9.74,0,0,0,1.39.75,7.09,7.09,0,0,1,2,1.34,2.89,2.89,0,0,1-.54,4.16,4.75,4.75,0,0,1-2.74.73,6.85,6.85,0,0,1-2.81-.63"/><path class="cls-3" d="M126.2,60.47v-2.1a8.16,8.16,0,0,1,3.89-1c1.44,0,2.38.42,2.81,1.27a6,6,0,0,1,.33,2.38v6.35a30.09,30.09,0,0,1-4.21.36,3.82,3.82,0,0,1-2.7-.77,2.74,2.74,0,0,1-.7-2A3,3,0,0,1,127.34,62a11.25,11.25,0,0,1,3.44-.81H131v-.36a1.55,1.55,0,0,0-.36-1.2,1.69,1.69,0,0,0-1.08-.27,6.27,6.27,0,0,0-3.35,1.12M131,65.68V63a6.28,6.28,0,0,0-2.57.58,1.2,1.2,0,0,0-.61,1.11c0,.76.44,1.14,1.33,1.14a12.81,12.81,0,0,0,1.85-.16"/><path class="cls-3" d="M136.2,53h2.51v2.61H136.2Zm.05,4.52h2.43v10h-2.43Z"/><path class="cls-3" d="M141.82,67.54V58.23a11.38,11.38,0,0,1,4.3-.86,6.62,6.62,0,0,1,1.95.28V59.7a5,5,0,0,0-1.71-.28,5.83,5.83,0,0,0-2.1.39v7.74"/><rect class="cls-3" x="150.02" y="52.13" width="2.44" height="15.41"/><path class="cls-3" d="M155.58,53h2.51v2.61h-2.51Zm0,4.52h2.44v10h-2.44Z"/><path class="cls-3" d="M161.2,67.54V58a16.16,16.16,0,0,1,4.54-.67,4.44,4.44,0,0,1,3.33,1,3.92,3.92,0,0,1,.8,2.73v6.42h-2.44V61.29a2,2,0,0,0-.51-1.56,2.36,2.36,0,0,0-1.48-.38,6.45,6.45,0,0,0-1.8.27v7.92"/><path class="cls-3" d="M181.5,63h-6.87c.1,1.85,1.13,2.79,3.09,2.79A5.29,5.29,0,0,0,181,64.72v2a6.88,6.88,0,0,1-3.62,1,4.92,4.92,0,0,1-3.92-1.53,5.21,5.21,0,0,1-1.18-3.57,5.49,5.49,0,0,1,1.51-4.07,4.62,4.62,0,0,1,3.37-1.31,4.58,4.58,0,0,1,2.5.7A3.78,3.78,0,0,1,181,59.63a8.91,8.91,0,0,1,.47,3.33m-6.7-1.7h4.36q-.17-2.1-2-2.1a2.17,2.17,0,0,0-1.61.63,2.62,2.62,0,0,0-.71,1.47"/><path class="cls-3" d="M183.52,67.2V65a5.15,5.15,0,0,0,2.71.9c1.08,0,1.63-.34,1.63-1,0-.46-.33-.83-1-1.13l-1-.46A4.94,4.94,0,0,1,184,61.88a2.56,2.56,0,0,1-.48-1.56,2.6,2.6,0,0,1,1.17-2.27,4.51,4.51,0,0,1,2.63-.7,6.23,6.23,0,0,1,2.58.55V60a4.6,4.6,0,0,0-2.42-.76c-1.07,0-1.61.32-1.61,1a.79.79,0,0,0,.33.65,9,9,0,0,0,1.39.74,7.31,7.31,0,0,1,2,1.34,2.72,2.72,0,0,1,.64,1.83,2.68,2.68,0,0,1-1.18,2.34,4.75,4.75,0,0,1-2.74.72,6.64,6.64,0,0,1-2.8-.62"/></g><g id="Finnair"><rect id="Background-2" data-name="Background" class="cls-4" width="210" height="120.07"/><path class="cls-5" d="M197.94,56.62c-.12.24-.25.48-.37.73-.4.87-.83,1.73-1.2,2.61a3.78,3.78,0,0,1-3.24,2.39c-1.6.19-3.23.19-4.85.24-1.15,0-2.29,0-3.43,0l-.08.2a2.51,2.51,0,0,0,.6.36c.7.14,1.4.23,2.11.33a2.59,2.59,0,0,1,2,1.35c1,1.77,2.11,3.5,3.17,5.25.07.12.13.24.23.4a2.55,2.55,0,0,1-.32.05c-2.22,0-4.43,0-6.64,0a2.72,2.72,0,0,1-2.52-1.44c-1-1.63-1.95-3.24-2.9-4.86a2.84,2.84,0,0,0-2.63-1.6c-1.06,0-2.13,0-3.2,0-.31,0-.39.17-.5.38-.92,1.91-1.83,3.82-2.79,5.71a4.73,4.73,0,0,1-1,1.29,2,2,0,0,1-1.13.48c-2.16,0-4.33,0-6.51,0a1.67,1.67,0,0,1,.11-.31c1.77-3.69,3.57-7.37,5.32-11.08a9.17,9.17,0,0,1,4-4.29c2.5-1.38,5-2.7,7.6-4a11.6,11.6,0,0,1,2.08-.59H189a.7.7,0,0,0,.17.06,7,7,0,0,1,3.75,1.46c1.7,1.28,3.34,2.64,5,4Zm-22.74,3.7.4,0h9.15a17.41,17.41,0,0,0,2-.09A2.55,2.55,0,0,0,188.92,59c.74-1.43,1.42-2.88,2.1-4.34.23-.51,0-.88-.53-1a2.43,2.43,0,0,0-.55-.08c-3.2,0-6.41,0-9.61,0a2.86,2.86,0,0,0-2.76,1.78c-.72,1.54-1.48,3.06-2.23,4.59C175.29,60.06,175.26,60.17,175.2,60.32Z"/><path class="cls-5" d="M142.08,50.21a21.74,21.74,0,0,1,2.14.58,5.9,5.9,0,0,1,1.49.83c1.52,1.11,3,2.27,4.52,3.41a1.37,1.37,0,0,1,.48,1.91q-3.18,6.66-6.4,13.29a.6.6,0,0,1-.45.27c-1.74,0-3.47,0-5.2,0a1.38,1.38,0,0,1-1.3-2c.76-1.64,1.55-3.27,2.32-4.91.07-.14.13-.3.23-.53h-.56c-4,0-8.06,0-12.08,0a.7.7,0,0,0-.73.47c-.82,1.73-1.67,3.45-2.49,5.18a2.87,2.87,0,0,1-2.85,1.83c-1.94,0-3.87,0-5.86,0,.06-.15.12-.3.19-.45q2.61-5.46,5.23-10.91a10,10,0,0,1,4.54-4.69c1.4-.72,2.78-1.48,4.19-2.19,1.57-.8,3.06-1.82,4.88-2ZM127.89,60.75c.2,0,.32,0,.44,0h12.3a.57.57,0,0,0,.59-.39c.72-1.52,1.46-3,2.19-4.55.19-.4.4-.81.56-1.22a.67.67,0,0,0-.51-1,1.74,1.74,0,0,0-.5-.08c-3.32,0-6.63,0-9.94,0a2.65,2.65,0,0,0-2.46,1.62l-.64,1.28Z"/><path class="cls-5" d="M88.09,50.21c-.78,1.62-1.55,3.24-2.33,4.85l-7.26,15a.64.64,0,0,1-.69.44c-1.39,0-2.79-.05-4.18,0a2.88,2.88,0,0,1-2.31-1.1c-.55-.65-1-1.34-1.56-2-2-2.67-4-5.34-6-8-.35-.46-.66-1-1-1.5-.09.18-.18.33-.26.49-1.65,3.41-3.31,6.82-4.93,10.24a3,3,0,0,1-2.89,1.92H51.9c.08-.19.12-.33.18-.46,2.26-4.75,4.54-9.48,6.75-14.25a10.53,10.53,0,0,1,5.66-5.23c.25-.11.49-.25.73-.37h.56a2.74,2.74,0,0,1,1.2,1c2.5,3.44,5,6.86,7.53,10.29.68.93,1.32,1.88,2,2.83.08-.14.17-.3.25-.46,1.85-3.83,3.71-7.65,5.53-11.49A3.26,3.26,0,0,1,85,50.28c.05,0,.08-.05.12-.07Z"/><path class="cls-5" d="M120.06,50.21q-4.83,10-9.65,20a.49.49,0,0,1-.49.32c-1.46,0-2.92,0-4.37,0a2.78,2.78,0,0,1-2.07-.89c-.25-.27-.49-.55-.72-.85q-3.83-5.1-7.66-10.21a5.38,5.38,0,0,0-.53-.58c-.14.29-.25.5-.35.72q-2.37,5-4.75,9.92a5.11,5.11,0,0,1-.74,1.11,2.17,2.17,0,0,1-1.64.75H83.92a1.52,1.52,0,0,1,.06-.2l7-14.75a9.08,9.08,0,0,1,4.33-4.36c.64-.31,1.26-.64,1.89-1h.56a4.59,4.59,0,0,1,1,.79c3.27,4.43,6.51,8.88,9.76,13.33.26-.52.57-1.12.86-1.73q2.53-5.24,5-10.49a3.06,3.06,0,0,1,2.13-1.77c.27-.06.55-.09.82-.13Z"/><path class="cls-5" d="M45.89,50.21a6.61,6.61,0,0,1-1.45,2.6,2.44,2.44,0,0,1-1.85.73c-4.13,0-8.27,0-12.4.05a4.8,4.8,0,0,0-1.84.37,2.42,2.42,0,0,0-1.08,1c-1,1.84-1.84,3.72-2.74,5.58a1.81,1.81,0,0,0,0,.22H35.6A2.42,2.42,0,0,1,33,63q-4.47,0-8.92,0a.6.6,0,0,0-.64.39c-.87,1.79-1.76,3.57-2.62,5.37A2.84,2.84,0,0,1,18,70.52c-2,0-4,0-6,0v-.09a2.36,2.36,0,0,0,.36-.42Q15,64.47,17.66,59a9.79,9.79,0,0,1,4.07-4.33c.59-.33,1.18-.67,1.8-1,2.55-1.18,4.83-3,7.68-3.5Z"/><path class="cls-5" d="M57,50.21q-4.52,9.39-9,18.77a2.45,2.45,0,0,1-2.2,1.49c-2,0-4.08,0-6.13,0l-.21,0,.16-.4q4.35-9,8.71-18a3,3,0,0,1,2.31-1.73,1.29,1.29,0,0,0,.26-.08Z"/><path class="cls-5" d="M167.08,50.21q-4.41,9.2-8.82,18.4a3,3,0,0,1-2.9,1.9c-1.81,0-3.62,0-5.43,0l-.41,0c.08-.18.13-.34.2-.48L158,52.92a10.33,10.33,0,0,1,.6-1.2A2.76,2.76,0,0,1,161,50.28a2.29,2.29,0,0,0,.36-.07Z"/></g></svg>