<?xml version="1.0" encoding="utf-8"?>
<!-- Generator: Adobe Illustrator 23.0.1, SVG Export Plug-In . SVG Version: 6.00 Build 0)  -->
<svg version="1.1" id="Layer_1" xmlns="http://www.w3.org/2000/svg" xmlns:xlink="http://www.w3.org/1999/xlink" x="0px" y="0px"
	 viewBox="0 0 209.9 120" style="enable-background:new 0 0 209.9 120;" xml:space="preserve">
<style type="text/css">
	.st0{fill:#CB9800;}
	.st1{fill:#FFFFFF;}
</style>
<title>EY</title>
<rect id="Background" y="0" class="st0" width="209.9" height="120"/>
<g>
	<g>
		<polygon class="st1" points="110.7,29.5 112.6,27.6 114.3,29.4 114.5,29.5 112.6,31.5 		"/>
		<polygon class="st1" points="114.5,29.5 116.4,27.6 118.2,29.4 118.4,29.5 116.4,31.5 		"/>
		<path class="st1" d="M111.9,48.7c-0.5,0-0.9-0.2-0.9-0.2c-0.7-0.3-1.1-1.1-1.1-2.3c0-0.2,0-0.3,0-0.4v-0.3H93.5c0,0,0-13.6,0-14.7
			c0-0.6-0.4-0.8-0.8-1c-0.3-0.2-0.6-0.3-0.6-0.7c0-0.1,0-0.1,0-0.1v-0.1c2.3-1.7,3.9-3.8,3.9-3.8v18h13.9v-0.7
			c0-0.6-0.1-1.9-3.1-1.9c0,0-1.4,0-2.8,0c-0.8,0-1.6,0-2.1,0c-0.9-0.1-1.3-1-1.4-1.9c0-0.6,0.2-1.1,0.6-1.3l0.2-0.1l0.1,0.2
			c0.3,0.5,1.4,0.8,3.6,0.8h0.2c0.9,0,1.8,0,3-0.1c0.1,0,0.1,0,0.2,0c3.7,0,4.1,3.2,4.1,4.6V43c0,0.1,0,0.2,0,0.3h3.6v-5.4
			c0,0,0.1-0.4-0.7-0.8c-0.5-0.3-0.6-0.9-0.6-0.9c2.9-2.1,3.7-3.9,3.7-3.9v13.5h-6.1V46c0,0.8,0.2,1.9,0.6,2.2l0.3,0.2l-0.3,0.2
			C112.7,48.6,112.3,48.7,111.9,48.7z"/>
		<path class="st1" d="M82.7,47.6v-2h-8.4V43H85v3.3c0,0-0.1,1,1.9,1c1.3,0,1.3-1.2,1.3-1.3v-5.9c0-0.8-0.5-0.9-0.9-0.9
			c-0.1,0-0.1,0-0.1,0H74.4v-7.4c0,0,1.5,1.8,3,2.7c0.2,0.2,0.1,0.6-0.6,1c-0.1,0.1-0.3,0.2-0.3,0.4s0,0.9,0,0.9h12.7
			c1.5,0,1.6,1.6,1.6,2.1c0,0.1,0,8.4,0,8.4s-0.1,2.3-3.8,2.3C82.5,49.7,82.7,47.6,82.7,47.6z"/>
		<path class="st1" d="M133.4,45.5V25l0.4,0.7c0,0,0.3,0.5,1.6,1.7c0.8,0.7,1.2,0.9,1.4,1s0.4,0.2,0.4,0.4V29
			c-0.1,0.4-0.4,0.6-0.6,0.7c-0.3,0.2-0.7,0.4-0.7,1c0,0.5,0,14.8,0,14.8S133.4,45.5,133.4,45.5z"/>
		<path class="st1" d="M121.4,48.2l2.6-2.6l-3.1-3.1V25c0,0,1.4,2.6,3.2,3.9v0.2c0,0.4-0.3,0.6-0.5,0.7c-0.3,0.2-0.5,0.4-0.6,1
			c0,0.5,0,10.3,0,10.4l2.6,2.7l2.6-2.7c0,0,0-9.9,0-10.4c0-0.6-0.3-0.8-0.6-1c-0.2-0.2-0.5-0.3-0.5-0.7V29c2-1.3,3.2-4,3.2-4v17.3
			l-3.1,3.3l2.6,2.6l-4.2,4.2L121.4,48.2z M125.5,49.9l1.7-1.7l-1.7-1.7l-1.7,1.7L125.5,49.9z"/>
	</g>
	<g>
		<path class="st1" d="M114.8,71.8l4.4-4.7v-9.3c0-0.1,0.1-0.1,0.1-0.1l0.6-0.3v-0.5H114v0.5l0.6,0.4c0.2,0.1,0.2,0.2,0.2,0.2v5.4
			H103l-2.7,3.4v-8.7v-0.2c0,0,0,0,0.1-0.1l0.6-0.4h0.1v-0.5h-5.9v0.5l0.6,0.4c0.1,0.1,0.1,0.1,0.1,0.1l0,0v16v0.2l-0.1,0.1
			l-0.6,0.4V75h5.9v-0.5l-0.6-0.4c-0.1-0.1-0.1-0.1-0.2-0.1l0,0v-7.4l0.6,0.2l0.8-0.5c0.1-0.1,0.3-0.2,0.4-0.2c0,0,0.1,0,0.3,0h12.3
			L114.8,71.8L114.8,71.8z"/>
		<path class="st1" d="M177.5,63.9c-0.7-2.2-2.3-4-4.7-5.3c-2.2-1.2-5.3-1.8-9.5-1.8h-16.1v0.5l0.7,0.4l0,0v1.9h15.3
			c3.1,0,5.4,0.4,6.7,1.2c2.2,1.3,3.3,2.9,3.3,5.1c0,1.1-0.3,2.1-0.9,2.9c-0.6,0.9-1.4,1.6-2.6,2.2c-1.5,0.8-3.7,1.2-6.7,1.2h-8
			V60.9h-4.4v12.9V74l-0.1,0.1l-0.5,0.3l0,0V75h13.1c2.5,0,4.5-0.1,5.9-0.4c1.9-0.4,3.6-1.1,5-2.1c1.5-1,2.5-2.1,3.1-3.4
			c0.4-0.9,0.7-1.9,0.7-3C177.8,65.4,177.7,64.6,177.5,63.9z"/>
		<path class="st1" d="M119.9,74.3c-0.1,0-0.2,0-0.2-0.1l11-11.4l-2.5-2.7L113.9,75h6.6v-0.6h-0.2C120.1,74.4,120,74.3,119.9,74.3z"
			/>
		<path class="st1" d="M129.3,59.4l2.8,3l2.9,2.9h-4.9l-2.7,2.8l0.6,0.4l0.6-0.3c0.1,0,0.1-0.1,0.2-0.1c0,0,0.2,0,0.5,0h8.4l5.8,6.2
			c0,0-0.1,0.1-0.6,0.1h-0.2V75h6.6l-17.4-18.3L129.3,59.4z"/>
		<path class="st1" d="M87.2,57.3l0.6,0.4c0.1,0.1,0.2,0.2,0.2,0.3v15.9v0.2c-0.1,0-0.1,0.1-0.2,0.1l-0.6,0.4V75H93v-0.5l-0.5-0.4
			C92.4,74,92.4,74,92.4,74l0,0V57.9v-0.2l0.1-0.1l0.5-0.4v-0.5h-5.8V57.3z"/>
		<path class="st1" d="M62.7,71.5L61.9,72c-0.2,0.1-0.3,0.2-0.3,0.2H48.5c-3,0-5.3-0.4-6.8-1.2c-2.3-1.2-3.4-2.8-3.4-5.1
			c0-1,0.3-2,0.9-2.9c1.1-1.7,2.8-2.8,5.1-3.2c0.6-0.1,1.2-0.1,1.6-0.1c0.7,0,6.7,0,6.7,0c0.4,0,0.3,0.1,0.4,0.1l-0.1,0.5h0.6
			l2.9-3.5h-8.1c-1.9,0-3.3,0.1-4.3,0.2c-0.5,0.1-1,0.2-1.5,0.3c-1.3,0.3-2.6,0.8-3.8,1.5c-2,1.1-3.4,2.5-4.2,4.2
			c-0.5,1-0.7,2-0.7,3.2c0,2.9,1.6,5.3,4.7,7c1.4,0.8,3,1.3,4.7,1.6c1.3,0.2,3.1,0.3,5.3,0.3h12.2l2.9-3.5h-0.2L62.7,71.5z"/>
		<path class="st1" d="M56.8,67.1l2.8-3.5h-19l-1.9,2.9h17.2c0.3,0,0.4,0.1,0.4,0.2l-0.1,0.5L56.8,67.1L56.8,67.1z"/>
		<path class="st1" d="M55.7,60.1l0.5,0.2h0.1l0.8-0.4c0.2-0.2,0.5-0.2,0.7-0.2h10.6v14.1V74c0,0.1-0.1,0.1-0.1,0.1l-0.6,0.4V75h5.9
			v-0.5L73,74.1L72.7,74c0,0,0-0.1,0-0.2V59.7h9.4c0.4,0,0.4,0.1,0.4,0.1v0.5H83l2.9-3.5H58.3L55.7,60.1z"/>
	</g>
	<g>
		<path class="st1" d="M60.3,95.1l4.4-11.2h1.4l4.4,11.2h-2.3l-0.9-2.3h-2.9l-0.6-1.6h2.9l-1.2-3.1l-0.3-1l-0.3,1l-2.6,7H60.3z"/>
		<path class="st1" d="M76.1,95.1V83.9h2.2v11.2H76.1z"/>
		<path class="st1" d="M91,95.1l-2.6-3.7h-1.2v3.7H85V83.9h3.6c1.3,0,2.3,0.3,3,0.9s1,1.5,1,2.7c0,0.9-0.2,1.6-0.6,2.3
			c-0.4,0.6-1,1.1-1.7,1.4l3,4H91V95.1z M87.2,89.9h1.4c1.2,0,1.8-0.7,1.8-2.2c0-0.7-0.1-1.2-0.4-1.5c-0.3-0.4-0.8-0.5-1.4-0.5h-1.4
			V89.9z"/>
		<path class="st1" d="M101,95.1l-3.3-11.2h2.3l2.1,8h0.1l2-6.2l-0.6-1.8h2.1l2.6,8h0.1l2.1-8h2.1l-3.4,11.2h-1.8l-2.3-6.9l-2.3,6.9
			H101z"/>
		<path class="st1" d="M116.2,95.1l4.4-11.2h1.4l4.4,11.2h-2.3l-0.9-2.3h-2.9l-0.6-1.6h2.9l-1.2-3.1l-0.3-1l-0.3,1l-2.6,7H116.2z"/>
		<path class="st1" d="M133.3,95.1v-4.6l-3.7-6.6h2.4l2.4,4.7l2.5-4.7h2.2l-3.7,6.6v4.6H133.3z"/>
		<path class="st1" d="M146.9,95.4c-1.2,0-2.1-0.2-2.9-0.7v-2.3c0.9,0.8,1.8,1.2,2.9,1.2c1.4,0,2-0.5,2-1.6c0-0.4-0.1-0.7-0.4-0.9
			c-0.3-0.2-0.7-0.4-1.4-0.6l-0.4-0.1c-1.9-0.5-2.8-1.5-2.8-3.2c0-1.1,0.3-2,1-2.6s1.7-0.9,3-0.9c1.2,0,2.2,0.2,2.9,0.7v2.3
			c-0.3-0.3-0.7-0.5-1.3-0.8c-0.5-0.2-1.1-0.3-1.7-0.3c-0.6,0-1.1,0.1-1.4,0.3c-0.3,0.2-0.4,0.6-0.4,1s0.1,0.7,0.4,0.9
			c0.2,0.2,0.7,0.4,1.4,0.6l0.4,0.1c1,0.2,1.8,0.6,2.2,1.1c0.5,0.5,0.7,1.2,0.7,2.1c0,1.1-0.4,2-1.1,2.7
			C149.3,95.1,148.3,95.4,146.9,95.4z"/>
	</g>
</g>
</svg>
