<svg xmlns="http://www.w3.org/2000/svg" xmlns:xlink="http://www.w3.org/1999/xlink" viewBox="0 0 209.86 120.07"><defs><style>.cls-1{fill:#d02029;}.cls-2{fill:#fff;}.cls-3{fill:url(#linear-gradient);}</style><linearGradient id="linear-gradient" x1="140.91" y1="81.95" x2="182.37" y2="58.01" gradientUnits="userSpaceOnUse"><stop offset="0" stop-color="#ed8323"/><stop offset="0.85" stop-color="#ffcf01"/></linearGradient></defs><title>IB</title><g id="Layer_2" data-name="Layer 2"><g id="Iberia_Airlines" data-name="Iberia Airlines"><rect id="Background" class="cls-1" width="209.86" height="120.07"/><path class="cls-2" d="M102.47,61.29a20.63,20.63,0,0,0-2-2.46A5.13,5.13,0,0,0,104,53.91a4.87,4.87,0,0,0-1.28-3.38c-1.15-1.19-2.94-1.72-5.8-1.72H85.51c-.27,2.62-.41,5.74-.41,8.53s.14,5.58.42,8.55H90.8c-.23-2.21-.34-4.11-.41-6.34h5.32a17.75,17.75,0,0,1,1.68,2.29,24.23,24.23,0,0,1,2,4h5.9A38,38,0,0,0,102.47,61.29Zm-5-4.9H90.39c0-1.27,0-2.7.16-4.38h4.64c1.71,0,2.55.2,3.08.77a2,2,0,0,1,.51,1.36A2.61,2.61,0,0,1,97.46,56.39ZM35.3,57.49a76.36,76.36,0,0,1-.41,8.4H30.34a79.13,79.13,0,0,1-.42-8.4,81.67,81.67,0,0,1,.42-8.68h4.55C35.14,51.23,35.31,54.48,35.3,57.49Zm78.88,0a76.32,76.32,0,0,1-.42,8.4h-4.54a79.13,79.13,0,0,1-.42-8.4,79.11,79.11,0,0,1,.42-8.68h4.55C114,51.23,114.19,54.48,114.18,57.49Zm21.24-.8a69.28,69.28,0,0,0-4.55-7.88h-5.4a75.51,75.51,0,0,0-4.54,7.85,90.6,90.6,0,0,0-4.11,9.23h5.58c.34-1.07.75-2.15,1.19-3.17h9.16a31.7,31.7,0,0,1,1.2,3.17h5.58C138.53,63.32,137.09,60,135.42,56.69Zm-10.57,2.87C126,57,127,55,128.17,52.84c1.15,2.06,2.18,4.15,3.33,6.72ZM57.09,56.68a4,4,0,0,0,2-3.5,3.6,3.6,0,0,0-1.27-3c-1.46-1.25-4.16-1.35-7-1.35h-9.7a83.72,83.72,0,0,0-.42,8.53c0,2.78.13,5.5.42,8.55H51.21c3.56,0,5.76-.42,7.12-1.35A4.51,4.51,0,0,0,60,60.8,4.36,4.36,0,0,0,57.09,56.68ZM46.16,52h4.47c1.81,0,2.41.13,2.93.65A1.86,1.86,0,0,1,54,54a2.15,2.15,0,0,1-.82,1.75H46C46,54.43,46.07,53.25,46.16,52Zm8.15,10a3.33,3.33,0,0,1-2.44.67H46.16c-.11-1.36-.15-2.73-.16-3.85h6.43a2.51,2.51,0,0,1,1.83.48,1.59,1.59,0,0,1,.57,1.3A1.88,1.88,0,0,1,54.31,62Zm26.39,3.9H64.4c-.23-2.73-.42-5.77-.42-8.54s.17-5.84.42-8.54H80.7c-.11,1.2-.17,2.2-.23,3.4H69.39c-.09,1.14-.13,2.5-.13,3.44H79.5v3.22H69.26c0,1.15,0,2.33.13,3.61h11.1C80.55,63.71,80.61,64.75,80.7,65.89Z"/><path class="cls-3" d="M147.56,71.46c9.91-10,24.08-15.5,33.47-15.77l-3.22,8.4C174,73,167.41,79.57,139.53,79.57Z"/><path class="cls-2" d="M157.25,61.65l9-9.15c4.36-4.35,6.08-7.1,18.69-7.1l-2.08,5.41C174.38,51.77,165.83,55.49,157.25,61.65Z"/></g></g></svg>