<svg xmlns="http://www.w3.org/2000/svg" viewBox="0 0 210 119.99"><defs><style>.cls-1{fill:#63003d;}.cls-2,.cls-3{fill:#fff;}.cls-2{fill-rule:evenodd;}</style></defs><title>QR</title><g id="Layer_2" data-name="Layer 2"><g id="Qatar"><rect id="Background" class="cls-1" width="210" height="119.99"/><path class="cls-2" d="M57.28,75.44c-.32,0-.63,0-1,0s-.72,0-1.08,0l1-2.55,1,2.55m1.17,2.9c.19,0,.48-.06.77-.06s.66,0,.82.06c-.47-1-1.16-2.57-1.55-3.48s-1-2.32-1.5-3.75a1.26,1.26,0,0,1-.33,0,1.34,1.34,0,0,1-.35,0,44.68,44.68,0,0,1-1.9,4.55l-1.2,2.68a3,3,0,0,1,.47-.06,3.46,3.46,0,0,1,.49.06c.17-.59.5-1.45.83-2.25.42,0,.83,0,1.25,0s.89,0,1.33,0l.44,1.1Z"/><path class="cls-3" d="M60.94,73.62c0,1.77,0,3.49-.11,4.72.23,0,.52-.06.75-.06s.49,0,.73.06c-.09-.84-.11-2-.11-3.51a33.56,33.56,0,0,1,.12-3.61,6.5,6.5,0,0,1-.74.06c-.16,0-.54,0-.74-.06a22.19,22.19,0,0,1,.1,2.4"/><path class="cls-2" d="M67.12,74.81a2,2,0,0,0,1.81-1.92,1.65,1.65,0,0,0-.48-1.17,2.14,2.14,0,0,0-1.63-.5l-1.71,0a10.2,10.2,0,0,1-1,0c.07,1.34.07,1.48.07,2.84,0,2,0,2.24-.09,4.28a5.67,5.67,0,0,1,.71-.06,6.79,6.79,0,0,1,.7.06c0-.27,0-1.61,0-1.91V75h.25c.56.79,1.2,1.7,1.73,2.52.16.24.39.62.54.86a5.21,5.21,0,0,1,.85-.06,8,8,0,0,1,.92.06c-.65-.82-.93-1.18-1.76-2.34-.15-.21-.38-.56-.54-.77l-.29-.42m-1.7-3c.16,0,.54-.06.74-.06a1.56,1.56,0,0,1,1,.27,1.18,1.18,0,0,1,.44,1.08,1.34,1.34,0,0,1-1.42,1.43c-.27,0-.52,0-.72,0Z"/><path class="cls-3" d="M72.53,75.91c-.48-1.44-1.16-3.47-1.48-4.69a4.68,4.68,0,0,1-.73.06c-.25,0-.6,0-.81-.06.43,1.12.79,2.12,1.07,2.9.48,1.36.79,2.29,1.17,3.43l.25.79a2.59,2.59,0,0,1,.43-.06,1.76,1.76,0,0,1,.4.06c.16-.54.36-1.2.51-1.63.4-1.18.45-1.35,1-2.82l.31-.87.43,1.2c.11.32.64,1.91.77,2.26s.2.61.59,1.86a3.62,3.62,0,0,1,.44-.06,2,2,0,0,1,.42.06c.4-1.23.44-1.36,1-3s.92-2.55,1.55-4.1a1.89,1.89,0,0,1-.47.06,2,2,0,0,1-.48-.06c-.37,1.35-.56,2-.86,2.89-.49,1.46-.55,1.62-.85,2.42-.33-.9-.66-1.8-1-2.72-.16-.5-.8-2.57-.81-2.59a1.84,1.84,0,0,1-.46.06,2.59,2.59,0,0,1-.45-.06c-.31,1.26-1.42,4.32-1.52,4.6l-.26.67-.2-.58"/><path class="cls-2" d="M83,75.44c-.32,0-.63,0-1,0s-.72,0-1.08,0L82,72.89l1,2.55m1.18,2.9c.19,0,.48-.06.77-.06s.65,0,.81.06c-.47-1-1.16-2.57-1.55-3.48s-1-2.32-1.5-3.75a1.2,1.2,0,0,1-.33,0,1.27,1.27,0,0,1-.34,0,47.26,47.26,0,0,1-1.9,4.55l-1.21,2.68a3.16,3.16,0,0,1,.47-.06,3.61,3.61,0,0,1,.5.06c.17-.59.5-1.45.83-2.25.42,0,.83,0,1.25,0s.88,0,1.33,0l.43,1.1Z"/><path class="cls-3" d="M88.55,75.56a.78.78,0,0,1,.13-.33c.44-.75.84-1.53,1.31-2.28.16-.25.92-1.45,1.07-1.73a1.16,1.16,0,0,1-.43.06,3.49,3.49,0,0,1-.61-.06,28.9,28.9,0,0,1-1.79,3.51c-.89-1.55-1.28-2.37-1.82-3.51a5.22,5.22,0,0,1-.85.06,8.11,8.11,0,0,1-.85-.06c.54.9,1.42,2.34,2,3.25l.61,1.06c0,.64,0,2-.06,2.81.2,0,.49-.06.7-.06s.47,0,.71.06c0-1-.07-1.52-.07-2.4v-.38"/><path class="cls-3" d="M91.66,76.79A4.07,4.07,0,0,1,91.42,78a4.2,4.2,0,0,0,2,.53A2.32,2.32,0,0,0,96,76.21a2.08,2.08,0,0,0-.5-1.37,3.32,3.32,0,0,0-1.42-.76c-.91-.35-1.44-.56-1.44-1.32a1.1,1.1,0,0,1,1.23-1.12,1.3,1.3,0,0,1,1.36.91h.14a5.06,5.06,0,0,1,.32-1A3.72,3.72,0,0,0,94,71.13c-1.88,0-2.42,1.17-2.42,2.08a1.79,1.79,0,0,0,1.31,1.84c.29.12.78.31,1.07.44a1.25,1.25,0,0,1,.85,1.19A1.27,1.27,0,0,1,93.42,78c-.61,0-1.13-.16-1.61-1.19h-.15"/><path class="cls-2" d="M34,57.59c0-7.86,4.21-10,7.39-10,5.11,0,7.32,4.24,7.32,8.76a12.55,12.55,0,0,1-1.59,7,6.79,6.79,0,0,1-5.7,3.15C35.6,66.5,34,61,34,57.59m15.52,16a22.49,22.49,0,0,1,3.46-1.93l-7-4.37c4.33-1.53,7-5.39,7-10.66C52.93,49.21,47.23,46,41.4,46c-6.29,0-11.72,3.5-11.72,11.41a10.64,10.64,0,0,0,3,7.51c2.72,2.74,5.93,3.15,8.64,3.15.34,0,.68,0,1,0Z"/><path class="cls-2" d="M67.47,59c-1,.06-1.9.12-2.87.12S62.45,59,61.36,59l3.18-7.67L67.47,59M71,67.65c.56,0,1.44-.18,2.31-.18s2,.15,2.43.18c-1.4-3-3.46-7.73-4.65-10.44s-3-7-4.48-11.25a3.54,3.54,0,0,1-1,.16,3.57,3.57,0,0,1-1-.16c-.75,2.56-2.55,6.61-5.7,13.65l-3.62,8a9.32,9.32,0,0,1,1.41-.18,10.67,10.67,0,0,1,1.49.18,68.75,68.75,0,0,1,2.5-6.76c1.24-.06,2.49-.12,3.73-.12s2.65.06,4,.12l1.31,3.3Z"/><path class="cls-3" d="M84.82,51.85c0-1.18,0-2.37.06-3.49,2.15,0,4.37,0,6.2.22a6.2,6.2,0,0,1-.15-1.12,8.29,8.29,0,0,1,.15-1.18c-3,.15-5.73.18-8.32.18-2.4,0-5.86,0-8.32-.18a4.49,4.49,0,0,1,.16,1.15,4.56,4.56,0,0,1-.16,1.15c1.59-.16,4.59-.22,4.87-.22h1.55c0,1.22.06,2.31.06,3.46l0,8.7c0,2.37-.19,4.77-.32,7.13a20.94,20.94,0,0,1,2.12-.18c.38,0,1.38.09,2.28.18a34,34,0,0,1-.22-4.27V51.85"/><path class="cls-2" d="M102.17,59c-1,.06-1.9.12-2.87.12S97.15,59,96.06,59l3.18-7.67L102.17,59m3.52,8.69c.56,0,1.43-.18,2.31-.18s2,.15,2.43.18c-1.41-3-3.46-7.73-4.65-10.44s-3-7-4.48-11.25a3.54,3.54,0,0,1-1,.16,3.47,3.47,0,0,1-1-.16c-.75,2.56-2.55,6.61-5.7,13.65l-3.62,8a9.53,9.53,0,0,1,1.4-.18,10.82,10.82,0,0,1,1.5.18,71.07,71.07,0,0,1,2.49-6.76c1.25-.06,2.49-.12,3.74-.12s2.65.06,4,.12l1.31,3.3Z"/><path class="cls-2" d="M123,57.06c2.83-.53,5.42-2.31,5.42-5.77A4.87,4.87,0,0,0,127,47.8c-1.34-1.28-2.87-1.52-4.9-1.52-.71,0-4.33.15-5.14.15a30.61,30.61,0,0,1-3.12-.15c.22,4,.22,4.45.22,8.53,0,6,0,6.7-.28,12.84a17,17,0,0,1,2.15-.18,19.91,19.91,0,0,1,2.09.18c0-.81-.12-4.83-.12-5.73V57.49h.74c1.69,2.37,3.62,5.11,5.21,7.58.47.72,1.15,1.87,1.62,2.58a15.25,15.25,0,0,1,2.52-.18,24.49,24.49,0,0,1,2.78.18c-2-2.46-2.81-3.55-5.27-7C125,60,124.32,59,123.85,58.3L123,57.06M117.87,48c.46,0,1.62-.16,2.21-.16a4.78,4.78,0,0,1,2.9.78,3.62,3.62,0,0,1,1.31,3.24,4,4,0,0,1-4.27,4.3c-.81,0-1.56-.06-2.15-.09Z"/><path class="cls-3" d="M100.58,77.22H99.3s-.18-.79.29-1.09a8.54,8.54,0,0,1,1-.54v1.63m6.07-3a9.32,9.32,0,0,0-1.26.89c-.5.43.1.59.1.59v1.47h-3.72V72.09s-1.36,1.25-1.48,1.41.32.34.32.34l-.08.48s-.54.29-1.19.73-1.14,1-1.14,1.38S98,78.34,98,78.34h8.61ZM99,72.39c.42,0,.73-.16.73-.5s-.2-.58-.73-.58-.59.21-.59.58S98.53,72.39,99,72.39Zm1.59,0c.43,0,.72-.16.72-.5s-.2-.58-.72-.58-.59.21-.59.58S100.12,72.39,100.55,72.39Zm2.4,6.39c-.47,0-.59.2-.59.57s.16.51.59.51.72-.17.72-.51S103.48,78.78,103,78.78Zm1.64,0c-.46,0-.59.2-.59.57s.17.51.59.51.73-.17.73-.51S105.12,78.78,104.59,78.78Zm18.57-6.49c.43,0,.73-.16.73-.5s-.2-.57-.73-.57-.59.2-.59.57S122.74,72.29,123.16,72.29Zm1.65,0c.42,0,.72-.16.72-.5s-.2-.57-.72-.57-.59.2-.59.57S124.38,72.29,124.81,72.29Zm4.54.14c-.23.2-.16.44.13.41v5.51h1.22V71.49S129.58,72.23,129.35,72.43Zm-4.9,3.09h-.79c0-.43.79-.67.79-.67Zm-5.21.91c0,.2,0,.53,0,.79h-6.89V76c.18-.47.48-.52,1-.52h5C119.41,75.49,119.24,76.06,119.24,76.43Zm8.07-3.6v4.39h-1.64v-4s-.34.13-.8.33-2.11.88-2.11,1.78V76.4h1.69v.82h-4c0-.19,0-.48,0-.89a2,2,0,0,0-2.1-2h-4.62a1.86,1.86,0,0,0-1.41.42V71.35s-.72.51-1.25.91,0,.68,0,.68v4.28h-1.51l0-3.68s-1,.77-1.35,1-.13.44.2.44c0,0-.06,2.71-.06,3.35s-.53,1.38-1.66,1c0,0-.35.07-.06.33a1.6,1.6,0,0,0,1.05.48,1.84,1.84,0,0,0,1.85-1.86h19V71.49s-1.13.74-1.35.94S127,72.87,127.31,72.83Z"/><path class="cls-3" d="M152.54,66.75a10.17,10.17,0,0,1-2.74.56,5.56,5.56,0,0,0-2.78.91c2.1,0,4.32-.08,6.51-.13-.14-.22-.61-.9-.61-.9a3.36,3.36,0,0,0-.36-.45h0M139.9,51.2c2.73,0,7.76-.07,12.73-.18.57-.45,1.16-.91,1.77-1.37-5.51-.14-11.44-.22-14.5-.22-1.28,0-2.33.4-2.33.89s1.05.88,2.33.88m.79-4.28c0,.38.82.69,1.83.69,3.12,0,10-.11,15.1-.28l1.13-.78c-5.11-.2-12.88-.33-16.23-.33-1,0-1.83.31-1.83.7m22.46,9.66a11.55,11.55,0,0,0,2.07,1c2.64-.13,4.35-.28,4.35-.44s-2.63-.37-6.42-.53m-24.82-1.87c2.32,0,6.1-.05,10.22-.12.59-.57,1.22-1.14,1.89-1.73-4.83-.1-9.44-.15-12.11-.15-1.45,0-2.63.44-2.63,1s1.18,1,2.63,1M164.64,50l-1.16.62a12.65,12.65,0,0,0,3.19-.34,6.14,6.14,0,0,0-2-.28m-18-5.34c3,0,12-.22,12-.49s-9-.49-12-.49c-.57,0-1,.22-1,.49s.47.49,1,.49m19.41,8.92a1.77,1.77,0,0,1-.18.42,9.25,9.25,0,0,0,2.65-.33,7.53,7.53,0,0,0-2.4-.32Zm-11.2,16.43c-5.64-.14-11.82-.23-15-.23-1.28,0-2.33.4-2.33.89s1.05.88,2.33.88c3.31,0,10-.1,15.86-.26-.3-.42-.6-.85-.89-1.28m2.66,3.64c-5.05-.18-11.91-.28-15-.28-1,0-1.83.31-1.83.69s.82.7,1.83.7c3.25,0,10.63-.12,15.73-.31-.24-.25-.48-.53-.72-.8m-11.91,3.12c0,.27.47.5,1,.5,3,0,12-.23,12-.5s-9-.49-12-.49c-.57,0-1,.22-1,.49M140.28,65a2.12,2.12,0,0,1,.39-.83c0,.05,0,.08,0,0,.2-.34.47-.77.8-1.27l-4,0c-1.54,0-2.79.48-2.79,1.06S135.93,65,137.47,65h2.81m2.29,3.33c-.38-.37-1.65-1.83-1.8-2h-2.44c-1.45,0-2.63.45-2.63,1s1.18,1,2.63,1l4.24,0m-.2-6.74c.46-.62,1-1.32,1.6-2.06-2.72,0-5.11-.06-6.78-.06s-2.85.48-2.85,1.08,1.27,1.08,2.85,1.08c1.33,0,3.13,0,5.18,0m-4.9-3.37c1.85,0,4.58,0,7.68-.08.55-.62,1.15-1.27,1.81-2-3.84-.06-7.29-.1-9.49-.1-1.54,0-2.79.48-2.79,1.06s1.25,1.07,2.79,1.07"/><path class="cls-3" d="M169.86,59.71c0,.54,0,1.07,0,1.6-5.25.21-10.22.52-10.22.88s4.86.66,10.05.87c-.09.6-.21,1.19-.35,1.76-5.12.21-9.86.52-9.86.86s4.43.64,9.33.85a18.15,18.15,0,0,1-.76,1.81c-4.21.21-7.7.48-7.7.77s3,.53,6.88.73c-.22.35-.44.69-.68,1s-.51.7-.8,1c-2.4.19-4,.39-4,.61s1.17.37,3,.53a17.46,17.46,0,0,1-3.54,2.7,27.7,27.7,0,0,1-3-3c-1.2-1.45-3.73-5.3-4.33-6.16s-1-1.11-1.69-.86a9.41,9.41,0,0,1-2.36.5c-.34,0-.52-.13,0-.35a7.89,7.89,0,0,0,3.86-3.43c1.22-2.43.15-5.79.15-5.79a4.24,4.24,0,0,1-1.34,2.47,5.33,5.33,0,0,0-.85-4.24L151.2,57s-.29,0-1,.58a3,3,0,0,0-.91,1.47c.56.23,1.24-.33,1.24-.33a26.86,26.86,0,0,1-3,7.2A5.12,5.12,0,0,1,145,68.14c-.76.3-1,0-1,0a15.06,15.06,0,0,1-1.68-1.72s0-.08.1-.07c.37,0,1-.63,1.17-.89s.15-.53.07-.55-.22.23-.94.68-1,.13-1.27-.12,0-.44.12-.59,3.85-7.13,13.76-14.47c13-9.62,21.29-12.21,21.77-12.4.31-.13.82-.29.94-.17a.46.46,0,0,1,.18.4c0,.16-.1.24-.7.5a114.07,114.07,0,0,0-14.12,8,68,68,0,0,0-8.1,4.88c-.31.2-.08.48.11.36,6.87-4.57,14.93-7.68,23.82-10.23.43-.12.66-.12.74,0a.67.67,0,0,1,.12.36c0,.16-.12.25-.49.39q-14.34,5.33-21.14,9.9s-.47.28-.48.61c0,.12.26.14.26.14,2.27,0,5.3.17,6.74.26,0,0-.2.73-1.58,1.32a7.44,7.44,0,0,1-3,.39.27.27,0,0,0-.22.45c.08.11,2.16,3.46,9.72,4.23"/></g></g></svg>