<svg id="All_Nippon" data-name="All Nippon" xmlns="http://www.w3.org/2000/svg" viewBox="0 0 210 120"><defs><style>.cls-1{fill:#3d1a6f;}.cls-2{fill:#ffcb05;}.cls-3{fill:#c6168d;}</style></defs><title>Thai-Airways</title><rect id="Background" class="cls-1" x="-5.94" y="-3.44" width="221.88" height="126.94"/><path class="cls-2" d="M74.1,66.22a11,11,0,0,0-1.54-2.5,10.75,10.75,0,0,0-2-1.94A11.65,11.65,0,0,0,69.29,61h0l-.66-.33a6.77,6.77,0,0,0,.66-.33h0a9,9,0,0,0,1.22-.74,10.45,10.45,0,0,0,2-1.94,11,11,0,0,0,1.54-2.5,12.1,12.1,0,0,0,.89-3,13.12,13.12,0,0,0,.18-2.13c0-.33,0-.66,0-1a11.29,11.29,0,0,0-.56-2.6,12,12,0,0,0-1.16-2.43,11.93,11.93,0,0,0-4-3.87A12,12,0,0,0,66.77,39a12.24,12.24,0,0,0-3.1-.48,11.68,11.68,0,0,0-3,.29,11,11,0,0,0-2.7,1,9.92,9.92,0,0,0-2.23,1.65,9,9,0,0,0-1.63,2.17,8.35,8.35,0,0,0-.89,2.6,8.78,8.78,0,0,0-.12,1.45,9.36,9.36,0,0,0,.08,1.18,12.81,12.81,0,0,0-2.59-1.21A12.14,12.14,0,0,0,47,47.1a12.62,12.62,0,0,0-3.35.34,11.78,11.78,0,0,0-2.87,1.09,14.23,14.23,0,0,0-2.46,1.64,19.52,19.52,0,0,0-1.54,1.39s-.74.73-1.1,1.19-.85,1-1.3,1.58l-.94,1.23c-.28.36-.55.69-.82,1s-.82.91-1.25,1.33a16.26,16.26,0,0,1-2.4,2l-.55.34c-.12.08-.25.14-.38.21s-.23.14-.23.27.13.22.23.28l.38.2.55.34a16.91,16.91,0,0,1,2.4,2c.43.43.84.88,1.25,1.34l.82,1,.94,1.24c.45.58.88,1.1,1.3,1.57s1.1,1.19,1.1,1.19c.51.51,1,1,1.54,1.4a14.83,14.83,0,0,0,2.46,1.64A12.65,12.65,0,0,0,43.68,74a13.05,13.05,0,0,0,3.35.34,12.48,12.48,0,0,0,3.53-.59,12.34,12.34,0,0,0,2.59-1.22,9.48,9.48,0,0,0-.08,1.18,8.78,8.78,0,0,0,.12,1.45,8.35,8.35,0,0,0,.89,2.6,8.81,8.81,0,0,0,1.63,2.18,9.59,9.59,0,0,0,2.23,1.64,10.59,10.59,0,0,0,2.7,1,11.68,11.68,0,0,0,3,.3,12.7,12.7,0,0,0,3.1-.49,12,12,0,0,0,2.7-1.17,12.29,12.29,0,0,0,2.23-1.72,12.61,12.61,0,0,0,1.72-2.14,11.85,11.85,0,0,0,1.16-2.44,11.29,11.29,0,0,0,.56-2.6c0-.32,0-.64,0-1A13.15,13.15,0,0,0,75,69.22a12.1,12.1,0,0,0-.89-3"/><path class="cls-1" d="M71.52,67.22A8.67,8.67,0,0,0,70.08,65a8.76,8.76,0,0,0-2-1.69,9.58,9.58,0,0,0-2.43-1.06,10,10,0,0,0-2.72-.38A13.06,13.06,0,0,0,60,62.2a10.77,10.77,0,0,0-2.3.84,14.19,14.19,0,0,0-1.86,1.13c-.55.4-1.08.82-1.61,1.24s-1,.79-1.57,1.14a7.58,7.58,0,0,1-1.69.83,6.29,6.29,0,0,1-2,.33,6.78,6.78,0,0,1-2.74-.55A6.88,6.88,0,0,1,44,65.63a7,7,0,0,1-1.48-2.27,7.41,7.41,0,0,1,0-5.3A6.92,6.92,0,0,1,44,55.8a6.73,6.73,0,0,1,2.23-1.53A7,7,0,0,1,49,53.71,6.29,6.29,0,0,1,51,54a7.21,7.21,0,0,1,1.69.84A17.32,17.32,0,0,1,54.24,56c.53.42,1.06.85,1.61,1.24a14.26,14.26,0,0,0,1.86,1.14,11.3,11.3,0,0,0,2.3.83,12.5,12.5,0,0,0,2.92.32,10,10,0,0,0,2.72-.37,9.27,9.27,0,0,0,2.43-1.07,9,9,0,0,0,2-1.68,8.55,8.55,0,0,0,1.44-2.22,9.29,9.29,0,0,0,.74-2.68,10.13,10.13,0,0,0-.1-3,9,9,0,0,0-2.54-4.78,9.58,9.58,0,0,0-2.14-1.55A9.37,9.37,0,0,0,65,41.35a9.2,9.2,0,0,0-2.77-.13,7.67,7.67,0,0,0-2.61.79,7.33,7.33,0,0,0-2.07,1.56,7.47,7.47,0,0,0-1.4,2.14A7.64,7.64,0,0,0,55.86,51a3.38,3.38,0,0,0,.11.34l.06.17a1,1,0,0,0,.07.18s.06.08.11.07.07-.07.08-.11a2.58,2.58,0,0,0,0-.39,5.26,5.26,0,0,1,.35-1.35,4.34,4.34,0,0,1,1.6-1.94,4.84,4.84,0,0,1,2.45-.79,5.2,5.2,0,0,1,2.69.52,4.34,4.34,0,0,1,1.78,1.72,5,5,0,0,1,.61,2.51,5,5,0,0,1-.72,2.55,4.74,4.74,0,0,1-2,1.79,4.93,4.93,0,0,1-2.59.46,5.27,5.27,0,0,1-1.78-.51,9.43,9.43,0,0,1-1.63-1c-.55-.41-1.07-.86-1.59-1.31s-1.11-.94-1.68-1.39A16.23,16.23,0,0,0,52,51.19a10.34,10.34,0,0,0-5-1.31,11.91,11.91,0,0,0-2.79.29,9.74,9.74,0,0,0-2.26.83,10.59,10.59,0,0,0-1.85,1.26,14.18,14.18,0,0,0-1.56,1.54c-.49.55-.94,1.12-1.39,1.7l-1.36,1.71c-.45.55-.92,1.09-1.43,1.6a11.81,11.81,0,0,1-1.63,1.35l-.37.23-.26.14c-.07,0-.16.09-.16.18s.09.15.16.19l.26.13.37.24a10.53,10.53,0,0,1,1.63,1.35,18.13,18.13,0,0,1,1.43,1.6c.46.56.91,1.14,1.36,1.71s.9,1.14,1.39,1.69a14.18,14.18,0,0,0,1.56,1.54,10.59,10.59,0,0,0,1.85,1.26,10.25,10.25,0,0,0,2.26.84,11.91,11.91,0,0,0,2.79.28,10.52,10.52,0,0,0,2.73-.38A10.86,10.86,0,0,0,52,70.23,15.08,15.08,0,0,0,53.87,69c.57-.44,1.13-.91,1.68-1.39s1-.89,1.59-1.31a10.08,10.08,0,0,1,1.63-1,5.5,5.5,0,0,1,1.78-.5A4.69,4.69,0,0,1,65.09,67a5.15,5.15,0,0,1,.11,5.06,4.34,4.34,0,0,1-1.78,1.72,5.2,5.2,0,0,1-2.69.53,5,5,0,0,1-2.45-.79,4.39,4.39,0,0,1-1.6-1.94,5.34,5.34,0,0,1-.35-1.36,2.33,2.33,0,0,0,0-.38s0-.11-.08-.12-.08,0-.11.08A1,1,0,0,0,56,70l-.06.16c0,.11-.08.23-.11.34a7.67,7.67,0,0,0,.26,5.25,7.49,7.49,0,0,0,3.47,3.7,7.88,7.88,0,0,0,2.61.78A8.89,8.89,0,0,0,65,80.08a9.06,9.06,0,0,0,2.51-.89,9.28,9.28,0,0,0,2.14-1.55,9,9,0,0,0,2.54-4.77,10.2,10.2,0,0,0,.1-3,9.29,9.29,0,0,0-.74-2.68"/><path class="cls-3" d="M58.33,60.71h0a.07.07,0,0,0-.06-.07,8.88,8.88,0,0,1-3-1.53c-1-.7-1.86-1.46-2.85-2.13a6.57,6.57,0,0,0-3.24-1.3,5.05,5.05,0,0,0-2.72.6,4.77,4.77,0,0,0-1.82,1.8A5.37,5.37,0,0,0,44,60.7h0v0a5.3,5.3,0,0,0,.69,2.61,4.77,4.77,0,0,0,1.82,1.8,5,5,0,0,0,2.72.61,6.67,6.67,0,0,0,3.24-1.3c1-.67,1.89-1.44,2.85-2.13a8.53,8.53,0,0,1,3-1.53.08.08,0,0,0,.06-.08Z"/><path class="cls-2" d="M178.75,75.17H169c1.83-1,2.15-1.86,2.15-5.36V53.33c0-3.49-.32-4.35-2.14-5.35h9.75c-1.83,1-2.14,1.86-2.14,5.35V69.81c0,3.5.31,4.36,2.14,5.36"/><path class="cls-2" d="M158.22,75.17H169c-2.17-1.28-2.85-2.5-4.21-5.67-7.48-17.37-10.14-23.41-10.14-23.41s-1.47,3.14-7.21,3.92a1.7,1.7,0,0,1,1,1.68,4.32,4.32,0,0,1-.44,1.82l-7.12,16c-1.5,3.36-2.38,4.24-4.49,5.59-1.66-1-2-1.91-2-5.28V53.33c0-3.45.35-4.35,2.13-5.35h-9.73c1.78,1,2.12,1.86,2.12,5.35V59h-13.5V53.33c0-3.49.31-4.35,2.14-5.35h-9.75c1.83,1,2.14,1.86,2.14,5.35V69.81c0,3.5-.31,4.36-2.14,5.36h9.75c-1.83-1-2.14-1.86-2.14-5.36V62.75h13.5v7.06c0,3.46-.34,4.36-2.12,5.36H146c-1.46-.79-1.79-1.23-1.79-1.94a5.56,5.56,0,0,1,.44-2l2-4.67h10.76l1.88,4.67a5.82,5.82,0,0,1,.68,2.24c0,.59-.17.79-1.76,1.75m-10.16-12,4.11-9.74,3.92,9.74Z"/><path class="cls-2" d="M106.89,46.11h0C106,47,104.05,48,100,48H87.08a2.86,2.86,0,0,1-3-2.41A21.31,21.31,0,0,1,79.3,52H90.66V69.84c0,3.44-.35,4.38-2.13,5.33h10c-2-1.34-2.39-2.22-2.39-4.9V52h1.51a15,15,0,0,0,4.82-.66,6,6,0,0,0,4.45-5.2h0"/></svg>