<?xml version="1.0" encoding="utf-8"?>
<!-- Generator: Adobe Illustrator 22.1.0, SVG Export Plug-In . SVG Version: 6.00 Build 0)  -->
<svg version="1.1" id="Layer_1" xmlns="http://www.w3.org/2000/svg" xmlns:xlink="http://www.w3.org/1999/xlink" x="0px" y="0px"
	 viewBox="0 0 210 120" style="enable-background:new 0 0 210 120;" xml:space="preserve">
<style type="text/css">
	.st0{fill:#D90530;}
	.st1{fill:#FFFFFF;}
</style>
<title>VS</title>
<rect id="Background" class="st0" width="210" height="120"/>
<g>
	<g>
		<path class="st1" d="M46.5,82.6c-0.9-0.2-1.8-0.3-2.6-0.7c-1.2-0.5-2.2-1.1-3.4-1.7c-0.3-0.2-0.4-0.4-0.2-0.7
			c0.3-0.4,0.6-0.7,0.8-1.1c1,0.5,2,1.2,3,1.6c2.3,0.9,4.6,1.1,6.8-0.1c2-1,2.6-2.9,2.8-4.9c0-0.5,0-0.9,0-1.6
			c-1.8,2.2-4.1,3.2-6.8,3.1c-2.1-0.1-4-0.9-5.4-2.5c-2.8-3-2.8-7.8,0-10.9c2.3-2.6,8-4.2,12.2,0.4c0-0.9,0-1.7,0-2.6
			c0.7,0,1.3,0,1.9,0c0,0.3,0,0.5,0,0.8c0,4.1,0,8.3,0,12.4c0,1.2-0.2,2.5-0.6,3.7c-0.8,2.5-2.7,3.8-5.2,4.5
			c-0.4,0.1-0.7,0.2-1.1,0.3C48.1,82.6,47.3,82.6,46.5,82.6z M47.5,62.6c-3.4,0-6,2.6-6,6.1c0,3.4,2.6,6.1,6,6.1
			c3.5,0,6.3-2.7,6.3-6.1C53.8,65.2,51.1,62.6,47.5,62.6z"/>
		<path class="st1" d="M159.6,56.5c0.4-0.5,0.9-0.9,1.3-1.4c4.6-5,9.1-10.1,13.7-15.1c1.1-1.2,2.2-2.5,3.5-3.5
			c1.8-1.4,4-1.5,6.2-1.6c6.2,0,12.5,0,18.7,0c0.1,0,0.3,0,0.5,0c-0.5,1.2-1,2.4-1.5,3.5c-1.5,3.4-3.1,6.8-4.6,10.2
			c-2.1,4.7-4.3,9.4-6.3,14.2c-0.6,1.5-1.6,1.9-3,2.1c-3.5,0.6-6.8,0-9.9-1.8c-2.4-1.3-4.6-2.9-6.9-4.2c-3-1.8-6.2-2.7-9.7-2.4
			c-0.6,0.1-1.2,0.1-1.8,0.1C159.8,56.6,159.7,56.6,159.6,56.5z M162.4,55.3c1.2,0.1,2.3,0.1,3.3,0.3c2.9,0.4,5.4,1.8,7.8,3.3
			c2.2,1.3,4.3,2.7,6.6,3.9c2.8,1.4,5.8,1.6,8.8,0.9c0.6-0.1,0.8-0.5,1-1c0.8-1.8,1.6-3.7,2.4-5.5c1.4-3,2.7-6.1,4.1-9.1
			c1.3-2.8,2.6-5.7,3.8-8.6c0.5-1.1,1-2.2,1.5-3.3c-0.4,0-0.6,0-0.9,0c-5.2,0-10.4,0-15.6,0c-0.9,0-1.8,0-2.8,0.1
			c-1.9,0.2-3.6,0.8-5,2.3c-3.3,3.6-6.6,7.2-9.9,10.8C166,51.3,164.2,53.3,162.4,55.3z"/>
		<path class="st1" d="M122.8,67.3c0.3-2.4-1.2-4.2-3.8-4.6c-2-0.3-3.9,0.1-5.7,0.9c-0.2,0.1-0.5,0.2-0.8,0.3
			c-0.2-0.6-0.5-1.1-0.7-1.6c2.7-1.2,5.3-1.9,8.2-1.3c1.8,0.4,3.3,1.3,4.1,3.1c0.4,0.9,0.6,1.9,0.6,2.8c0.1,3.5,0,7.1,0,10.6
			c0,0.1,0,0.2,0,0.3c-0.6,0-1.2,0-1.9,0c0-0.6,0-1.3,0-2c-0.6,0.5-1.2,0.9-1.7,1.3c-2.6,1.7-6.7,1.4-9-0.6c-2.4-2.2-2-7.1,1.5-8.4
			c1.4-0.5,2.7-0.8,4.2-0.8C119.5,67.3,121.2,67.3,122.8,67.3z M123.1,69.1c-2,0-3.8,0-5.6,0c-0.8,0-1.6,0.2-2.3,0.4
			c-2.5,0.7-3.3,3.6-1.6,5.6c1,1.1,2.4,1.5,3.8,1.4c2.3-0.1,4.3-0.9,5.1-3.2C123,71.9,122.9,70.5,123.1,69.1z"/>
		<path class="st1" d="M95.2,67.3c0-2.6-1.4-4.2-3.8-4.6c-2-0.3-3.9,0.1-5.7,0.9c-0.2,0.1-0.3,0.2-0.5,0.2c-0.1,0-0.2,0.1-0.3,0.1
			c-0.2-0.5-0.5-1-0.7-1.6c3.2-1.5,6.5-2.3,9.9-0.7c2,0.9,2.9,2.7,3,4.7c0.1,3.8,0,7.6,0,11.5c-0.6,0-1.2,0-1.8,0c0-0.6,0-1.3,0-1.9
			c-0.9,0.6-1.6,1.2-2.4,1.6c-2.6,1.3-6.7,1.1-8.8-1.4c-1.1-1.3-1.2-2.8-0.9-4.4c0.3-2.2,1.9-3.4,3.8-3.9c1.2-0.3,2.5-0.4,3.8-0.4
			C92.1,67.2,93.6,67.3,95.2,67.3z M95.2,69.1c-1.9,0-3.7,0-5.5,0c-0.8,0-1.6,0.2-2.3,0.3c-1.2,0.3-2.1,1-2.4,2.2
			c-0.3,1.3-0.1,2.5,0.9,3.5c2,2,6.3,1.5,8.2-0.8C95.4,72.8,95.3,71,95.2,69.1z"/>
		<path class="st1" d="M141.5,77.8c-0.6,0-1.2,0-1.9,0c0-0.3,0-0.5,0-0.7c0-3,0-6,0-9.1c0-1.1-0.3-2.1-0.7-3.1
			c-0.4-1.1-1.3-1.8-2.3-2.1c-3-0.8-5.8,0.1-6.9,3.3c-0.4,1.1-0.5,2.3-0.5,3.5c-0.1,2.7,0,5.4,0,8.1c-0.6,0-1.3,0-1.9,0
			c0-5.6,0-11.1,0-16.8c0.6,0,1.2,0,1.9,0c0,0.8,0,1.6,0,2.5c0.7-0.6,1.3-1.2,1.9-1.7c2.5-1.8,6.8-1.4,8.8,0.7
			c1.1,1.2,1.7,2.7,1.7,4.3C141.6,70.4,141.5,74,141.5,77.8z"/>
		<path class="st1" d="M62.5,61c0.6,0,1.2,0,1.8,0c0,0.8,0,1.7,0,2.5c1.1-1.2,2.2-2,3.6-2.5c2.9-0.8,6.7-0.2,8.1,3
			c0.4,1.1,0.7,2.3,0.7,3.4c0.1,3.3,0,6.7,0,10c0,0.1,0,0.2,0,0.3c-0.6,0-1.2,0-1.9,0c0-0.2,0-0.5,0-0.7c0-2.9,0-5.9,0-8.8
			c0-1.3-0.2-2.7-0.9-3.8c-0.5-0.7-1.1-1.3-1.9-1.6c-2.9-1-5.8,0-7,2.8c-0.6,1.4-0.7,2.8-0.7,4.3c0,2.4,0,4.7,0,7.1
			c0,0.2,0,0.5,0,0.8c-0.6,0-1.2,0-1.8,0C62.5,72.2,62.5,66.6,62.5,61z"/>
		<path class="st1" d="M169.1,73.5c0.4,0.4,0.9,0.8,1.3,1.1c-1.2,2.3-5.4,3.9-8.3,3.2c-4-0.9-6.6-3.8-6.9-7.7
			c-0.4-3.9,1.7-7.5,5.1-8.9c3.4-1.5,7.8-0.4,10.1,2.4c-0.4,0.4-0.8,0.9-1.2,1.3c-1.7-1.8-3.8-2.8-6.3-2.5c-1.6,0.2-2.9,0.9-3.9,2.1
			c-2.4,2.8-2.3,7.1,0.4,9.8c1.4,1.4,3.1,1.9,5.1,1.7C166.3,76,167.8,75,169.1,73.5z"/>
		<path class="st1" d="M16.1,75.3c1.3-2.8,2.5-5.6,3.7-8.3c0.8-1.8,1.6-3.6,2.4-5.4c0.2-0.5,0.5-0.7,1-0.6c0.4,0,0.9,0,1.4,0
			c-0.8,1.8-1.6,3.5-2.3,5.2c-1.4,3-2.8,6.1-4.1,9.1c-0.2,0.5-0.5,1-0.7,1.6c-0.5,1.1-0.6,1.2-1.9,1c-0.2,0-0.4-0.2-0.5-0.4
			c-1.3-2.7-2.5-5.4-3.8-8.2C10.1,66.8,9,64.4,7.9,62c-0.1-0.3-0.2-0.6-0.4-1c0.7,0,1.3,0,1.9,0c0.2,0,0.4,0.2,0.4,0.3
			c0.9,1.9,1.8,3.9,2.6,5.8C13.7,69.8,14.9,72.5,16.1,75.3z"/>
		<path class="st1" d="M32.7,77.8c-0.7,0-1.3,0-1.9,0c0-5.6,0-11.2,0-16.8c0.6,0,1.3,0,1.9,0c0,1.2,0,2.4,0,3.8c1.7-2.7,4-4,7.1-4
			c0,0.7,0,1.3,0,1.9c-0.8,0.2-1.7,0.2-2.5,0.5c-2.7,1-4.2,3-4.5,5.8c-0.2,2.6-0.1,5.2-0.2,7.7C32.7,77.1,32.7,77.4,32.7,77.8z"/>
		<path class="st1" d="M99.3,77.7c0-7,0-13.9,0-20.9c0.6,0,1.2,0,1.9,0c0,1.3,0,2.6,0,4c1.1,0,2.2,0,3.2,0c0,0.6,0,1.2,0,1.8
			c-1.1,0-2.1,0-3.2,0c0,5.1,0,10,0,15C100.6,77.7,100,77.7,99.3,77.7z"/>
		<path class="st1" d="M143.9,56.9c0.6,0,1.2,0,1.8,0c0,1.3,0,2.6,0,4c1.1,0,2.2,0,3.3,0c0,0.6,0,1.2,0,1.8c-0.9,0-1.7,0-2.6,0
			c-0.6,0-0.7,0.2-0.7,0.7c0,4.5,0,9,0,13.5c0,0.3,0,0.5,0,0.8c-0.7,0-1.2,0-1.8,0C143.9,70.8,143.9,63.9,143.9,56.9z"/>
		<path class="st1" d="M106.5,56.9c0.6,0,1.2,0,1.9,0c0,6.9,0,13.9,0,20.8c-0.6,0-1.2,0-1.9,0C106.5,70.8,106.5,63.9,106.5,56.9z"/>
		<path class="st1" d="M28.4,77.8c-0.6,0-1.2,0-1.9,0c0-5.6,0-11.2,0-16.8c0.6,0,1.3,0,1.9,0C28.4,66.6,28.4,72.2,28.4,77.8z"/>
		<path class="st1" d="M60,77.8c-0.6,0-1.2,0-1.9,0c0-5.6,0-11.2,0-16.8c0.6,0,1.2,0,1.9,0C60,66.5,60,72.1,60,77.8z"/>
		<path class="st1" d="M152.9,77.8c-0.6,0-1.2,0-1.8,0c0-5.6,0-11.2,0-16.8c0.6,0,1.2,0,1.8,0C152.9,66.5,152.9,72.1,152.9,77.8z"/>
		<path class="st1" d="M28.4,56.9c0,0.8,0,1.4,0,2.2c-0.6,0-1.2,0-1.9,0c0-0.7,0-1.4,0-2.2C27.1,56.9,27.7,56.9,28.4,56.9z"/>
		<path class="st1" d="M152.9,59.1c-0.6,0-1.2,0-1.8,0c0-0.7,0-1.4,0-2.1c0.6,0,1.2,0,1.8,0C152.9,57.6,152.9,58.3,152.9,59.1z"/>
		<path class="st1" d="M60,59.1c-0.6,0-1.2,0-1.9,0c0-0.7,0-1.4,0-2.2c0.6,0,1.2,0,1.9,0C60,57.6,60,58.3,60,59.1z"/>
		<path class="st1" d="M185,53c-2.4,1.5-4.6,3.1-6.5,5c-0.2,0.2-0.4,0.4-0.6,0.5c-0.2,0.1-0.6,0.1-0.8-0.1c-0.1-0.1-0.1-0.6,0-0.7
			c0.3-0.4,0.7-0.8,1.1-1.1c2.2-1.5,4.4-3,6.6-4.5c0.2-0.2,0.4-0.4,0.6-0.7c-0.1-0.1-0.1-0.1-0.2-0.2c-0.3,0.1-0.5,0.2-0.8,0.3
			c-0.6,0.1-1.1-0.1-1.2-0.7c-0.1-1.2,0.1-2.3,0.8-3.3c0.3-0.4,0.8-0.6,1.2-0.9c0.1,0.1,0.2,0.2,0.3,0.2c-0.1,0.2-0.1,0.5-0.3,0.6
			c-0.8,0.8-0.8,1.8-0.7,2.8c0.7,0.2,0.9-0.2,1-0.7c0.2-0.8,0.3-1.6,0.4-2.4c0-0.2,0-0.4,0.1-0.5c0.2-0.2,0.4-0.3,0.6-0.5
			c0.1,0.2,0.4,0.5,0.4,0.7c-0.1,1.2-0.3,2.3-0.5,3.5c0,0.2-0.1,0.4-0.1,0.7c2-1,3.9-2,5.7-2.9c0.1-1.1,0.2-2.1,0.2-3.1
			c-0.8,0-1.1,0.4-1.2,1c-0.1,0.5-0.2,1-0.3,1.5c-0.1,0.3,0,0.6-0.2,0.8c-0.1,0.2-0.4,0.3-0.7,0.3c-0.1,0-0.2-0.3-0.2-0.5
			c0.1-0.9,0.2-1.8,0.3-2.7c0.1-0.6,0.4-0.8,1-0.8c0.4,0,0.7-0.2,1.1-0.3c0.3-0.1,0.8-0.4,1-0.3c0.2,0.2,0.3,0.7,0.3,1
			c0,0.6-0.2,1.3-0.2,1.9c0,0.6,0.2,0.8,0.8,0.5c0.3-0.1,0.5-0.3,0.8-0.3s0.6,0.1,0.9,0.2c-0.2,0.3-0.3,0.7-0.5,0.8
			c-0.7,0.3-1.5,0.5-2.2,0.8c-2.2,1-4.3,2.1-6.5,3.1c-0.1,0.1-0.3,0.3-0.3,0.5c-0.1,1.4-0.3,2.8-0.4,4.2c0,0.6,0.2,1.2,0.2,1.8
			c0,0.3-0.1,0.7-0.3,1c-0.1,0.1-0.6,0.2-0.7,0.1c-0.2-0.2-0.5-0.6-0.4-0.9c0.1-1.8,0.3-3.6,0.5-5.4C185,53.3,185,53.2,185,53z"/>
		<path class="st1" d="M174,48.8c-0.3,0.6-0.5,1.1-0.8,1.6c-0.1,0.2-0.5,0.3-0.7,0.4c0-0.2-0.2-0.5-0.1-0.7c0.5-1.3,1-2.6,1.6-3.8
			c0.1-0.3,0.5-0.4,0.8-0.6c0.1,0.3,0.4,0.5,0.4,0.8c0.2,1.9,0.4,3.8,0.7,5.7c0.3-1,0.5-2.1,0.8-3.1c0.9-3.2,2.2-6.3,3.6-9.3
			c0.1-0.2,0.2-0.4,0.3-0.5c0.4-0.5,1-0.6,1.4-0.2c0.4,0.4,0.5,1,0,1.4c-1.2,1.1-2,2.5-2.6,4c-0.7,1.9-1.4,3.8-1.9,5.8
			c-0.6,2-1,4-1.4,6c0,0.2-0.1,0.4-0.2,0.6c-0.1,0.1-0.3,0.3-0.5,0.3s-0.3-0.2-0.4-0.4c-0.1-0.2-0.1-0.4-0.1-0.6
			c-0.2-2.2-0.4-4.4-0.5-6.6c0-0.2-0.1-0.4-0.1-0.6C174.1,48.8,174,48.8,174,48.8z"/>
		<path class="st1" d="M180.3,51.8c0.2-1.1,0.3-2,0.4-2.9c0.1-0.5,0.3-0.7,0.8-0.8c0.3,0,0.5-0.2,0.8-0.2c0.2,0,0.4,0.1,0.6,0.1
			c-0.1,0.2-0.1,0.5-0.2,0.6c-1.1,0.5-1.1,1.5-1.2,2.5c0,0.3,0,0.6-0.2,0.9c-0.1,0.2-0.5,0.4-0.7,0.4
			C180.5,52.3,180.4,51.9,180.3,51.8z"/>
		<path class="st1" d="M178,52.9c0.1-1,0.3-2,0.4-3c0-0.2,0.1-0.4,0.2-0.6c0.2-0.2,0.5-0.3,0.8-0.4c0.1,0.3,0.3,0.5,0.2,0.8
			c-0.1,1-0.3,2-0.5,2.9c-0.1,0.3-0.3,0.6-0.6,0.7C178.2,53.5,177.9,53.4,178,52.9z"/>
		<path class="st1" d="M187.3,49.5c0.2-1.2,0.4-2.4,0.7-3.6c0.1-0.2,0.4-0.4,0.7-0.6c0.1,0.2,0.2,0.3,0.2,0.4
			c-0.1,1.1-0.3,2.1-0.5,3.2C188.3,49.5,187.9,49.7,187.3,49.5z"/>
		<path class="st1" d="M180.7,46.8c-0.5,0.3-0.8,0.5-1.1,0.7c0,0-0.2-0.2-0.3-0.3c0.3-0.3,0.6-0.5,0.9-0.8
			C180.2,46.4,180.4,46.6,180.7,46.8z"/>
		<path class="st1" d="M189.5,43.5c0,0.6-0.4,1-0.8,0.9c-0.1,0-0.3-0.3-0.3-0.4C188.4,43.6,189,43.4,189.5,43.5z"/>
	</g>
</g>
</svg>
